<svg xmlns="http://www.w3.org/2000/svg" xmlns:xlink="http://www.w3.org/1999/xlink" width="74.706" height="74.706" viewBox="0 0 74.706 74.706"><defs><style>.a{fill:#bfa774;}.b{clip-path:url(#a);}</style><clipPath id="a"><circle class="a" cx="37.353" cy="37.353" r="37.353" transform="translate(875 4312)"/></clipPath></defs><g class="b" transform="translate(-875 -4312)"><g transform="translate(895.079 4339.162)"><g transform="translate(0 0)"><path d="M44.591,35.362a8.682,8.682,0,0,0-2.827-1.807L37.318,31.7a.768.768,0,0,0-.109-.036l-3.076-.775V28.281l.134-.069a.774.774,0,0,0,.31.123,20.672,20.672,0,0,1,5.138,1.453.775.775,0,0,0,.993-.322.764.764,0,0,0,.087-.093,19.322,19.322,0,0,0,3.891-11.816,18.769,18.769,0,0,0-5.6-13.705h0A13.679,13.679,0,0,0,29.729,0C21.482,0,14.773,7.876,14.773,17.557a19.251,19.251,0,0,0,4.042,12.008l.017.019.016.017a.8.8,0,0,0,.063.062l.012.011a.772.772,0,0,0,.281.151l.007,0a.778.778,0,0,0,.1.021h.006a.783.783,0,0,0,.108.008l.024,0a.754.754,0,0,0,.079-.007l.045-.007a.761.761,0,0,0,.091-.023l.045-.017.036-.014a20.751,20.751,0,0,1,5.206-1.463.774.774,0,0,0,.271-.1l.092.047v2.609l-3.261.781a.774.774,0,0,0-.118.039l-4.446,1.853a8.686,8.686,0,0,0-2.827,1.807,9.173,9.173,0,0,0-2.815,6.9v6.257a.779.779,0,0,0,.778.779h9.362a.778.778,0,0,0,0-1.557H19.408V41.982a.778.778,0,0,0-1.557,0v5.763H13.4V42.266a7.4,7.4,0,0,1,4.612-7.247L18.066,35l3.7-1.543.5,1.791v0l3.5,12.495H24.229a.778.778,0,0,0,0,1.557h22.4a.78.78,0,0,0,.778-.78V42.266A9.174,9.174,0,0,0,44.591,35.362ZM19.673,28.125A17.8,17.8,0,0,1,16.33,17.557c0-8.822,6.011-16,13.4-16a11.969,11.969,0,0,1,8.285,3.428,17.209,17.209,0,0,1,5.115,12.572,17.831,17.831,0,0,1-3.343,10.568,21.916,21.916,0,0,0-3.8-1.116,8.108,8.108,0,0,0,2.577-4.9,3.7,3.7,0,0,0,.076-7.364.778.778,0,0,0-.622-.75,12.967,12.967,0,0,1-7.657-4.27.778.778,0,0,0-1.192-.092A19.17,19.17,0,0,1,21.4,14.006a.778.778,0,0,0-.582.74,3.7,3.7,0,0,0,.076,7.364,8.109,8.109,0,0,0,2.577,4.9A21.925,21.925,0,0,0,19.673,28.125Zm18.971-7.593V16.32a2.139,2.139,0,0,1,0,4.212ZM20.815,16.32v4.212a2.14,2.14,0,0,1,0-4.212Zm1.557,4.691V15.343a20.715,20.715,0,0,0,7.3-4.031,14.939,14.939,0,0,0,7.413,4.073v5.626a6.569,6.569,0,0,1-6.561,6.561H28.934A6.569,6.569,0,0,1,22.372,21.011Zm.878,11.966,3.022-.723a.778.778,0,0,0,.6-.757V28.863a8.1,8.1,0,0,0,2.064.267h1.592a8.105,8.105,0,0,0,2.05-.263V31.5a.778.778,0,0,0,.588.755l3.034.765-.426,1.52a11.5,11.5,0,0,1-8.507,1.417,12.029,12.029,0,0,1-3.574-1.4Zm8.822,14.768H27.387L24.265,36.6a13.957,13.957,0,0,0,2.6.859,13.054,13.054,0,0,0,8.336-.875Zm13.777,0H41.4V41.982a.778.778,0,0,0-1.557,0v5.763H33.689l3.98-14.21L41.185,35l.049.018a7.405,7.405,0,0,1,4.615,7.248v5.479Z" transform="translate(-11.846 0)"/><path d="M41.868,35.186h1.326a.778.778,0,1,0,0-1.557h-.548V31.878a.778.778,0,0,0-1.557,0v2.53A.778.778,0,0,0,41.868,35.186Z" transform="translate(-24.127 -13.061)"/></g></g></g></svg>