<svg xmlns="http://www.w3.org/2000/svg" width="26.758" height="42.322" viewBox="0 0 26.758 42.322"><defs><style>.a{fill-rule:evenodd;}</style></defs><path class="a" d="M13.879,1.659a7.173,7.173,0,0,0-3.133.672A3.6,3.6,0,0,0,9.025,3.89l-1.1,3.037a11.106,11.106,0,0,1,3.423-1.232,13.648,13.648,0,0,1,5.061,0,11.106,11.106,0,0,1,3.423,1.232l-1.1-3.037a3.6,3.6,0,0,0-1.722-1.558A7.174,7.174,0,0,0,13.879,1.659ZM6.023,27.412a.832.832,0,1,1-.832.832A.832.832,0,0,1,6.023,27.412ZM7.33,25.121a.867.867,0,1,0,1.385,1.045h0a97.536,97.536,0,0,0,8-11.905c.949-1.835,1.6-3.2,2.036-4.262a15.571,15.571,0,0,0,.534-1.464,5.745,5.745,0,0,1,.93.724,3.854,3.854,0,0,1,.949,1.361c.07.38.49,3.14-1.591,7.264A135.222,135.222,0,0,1,5.235,40.023L2.306,34.458C3,33.574,3.8,32.548,4.676,31.423a.837.837,0,0,0-1.331-1.017C1.768,32.471.685,33.851.676,33.865a.822.822,0,0,0-.08.892l3.746,7.123a.827.827,0,0,0,1.38.129,104.754,104.754,0,0,0,7.543-10.363q.306-.468.609-.935c1.359,2.095,2.786,4.208,4.164,6.134,1.415,1.978,2.788,3.772,4,5.164a.855.855,0,0,0,.263.218.831.831,0,0,0,1.118-.347l3.749-7.123a.827.827,0,0,0-.082-.892c-.012-.016-4.328-5.525-8.348-11.036.984-1.689,1.79-3.145,2.322-4.2,2.51-4.975,1.727-8.393,1.725-8.4A48.227,48.227,0,0,0,20.234,3.2a5.217,5.217,0,0,0-2.5-2.348A8.847,8.847,0,0,0,13.879,0a8.855,8.855,0,0,0-3.857.848A5.2,5.2,0,0,0,7.506,3.236a52.941,52.941,0,0,0-2.528,6.989c0,.009-.785,3.428,1.725,8.4.263.52.642,1.225,1.083,2.017.405.729.827,1.474,1.237,2.179C8.46,23.6,7.89,24.366,7.33,25.121ZM9.971,7.788a12.74,12.74,0,0,0,.558,1.582c.417,1.01,1.047,2.329,1.978,4.133.2.38.48.87.811,1.413.183.3.373.6.565.907.574-.9,1.043-1.687,1.371-2.32.93-1.8,1.561-3.123,1.977-4.133a12.766,12.766,0,0,0,.558-1.582A10.236,10.236,0,0,0,16.1,7.32a12.053,12.053,0,0,0-4.438,0A10.223,10.223,0,0,0,9.971,7.788Zm2.92,9.546c-.356-.546-.694-1.08-.984-1.556-.351-.576-.656-1.1-.869-1.518C10.088,12.425,9.441,11.064,9,10a15.582,15.582,0,0,1-.534-1.464,5.792,5.792,0,0,0-.93.724,3.859,3.859,0,0,0-.949,1.361c-.07.38-.49,3.14,1.591,7.264.262.52.63,1.2,1.05,1.959.253.454.543.968.858,1.511C11.093,19.949,12.054,18.578,12.89,17.334Zm1.963,11.851c1.453,2.256,3.013,4.581,4.532,6.7,1.094,1.53,2.16,2.943,3.137,4.136l2.929-5.562c-1.047-1.345-4.417-5.692-7.634-10.08C16.918,25.887,15.913,27.52,14.854,29.186Zm0,0" transform="translate(-0.501)"/></svg>