<svg xmlns="http://www.w3.org/2000/svg" width="45.016" height="28.476" viewBox="0 0 45.016 28.476"><g transform="translate(0 -94.062)"><g transform="translate(0 94.062)"><g transform="translate(0 0)"><path d="M41.865,106.134,40.7,101.471a.7.7,0,0,0,.558-.689v-.752a2.964,2.964,0,0,0-2.96-2.96h-5.31V95.519a1.458,1.458,0,0,0-1.457-1.457H4.464a1.458,1.458,0,0,0-1.457,1.457V108.3a.7.7,0,1,0,1.41,0V95.519a.047.047,0,0,1,.047-.047H31.53a.047.047,0,0,1,.047.047V108.3a.7.7,0,0,0,1.41,0v-.8h8.318a2.307,2.307,0,0,1,2.19,1.6H41.3a.7.7,0,0,0-.7.7v1.5a2.211,2.211,0,0,0,2.209,2.209h.8v3.1H41.763a4.463,4.463,0,0,0-8.437,0h-.339v-5.31a.7.7,0,1,0-1.41,0v5.31H16.953a4.463,4.463,0,0,0-8.437,0H4.464a.047.047,0,0,1-.047-.047v-1.551H7.471a.7.7,0,0,0,0-1.41H.7a.7.7,0,0,0,0,1.41h2.3v1.551a1.458,1.458,0,0,0,1.457,1.457H8.271c0,.016,0,.031,0,.047a4.464,4.464,0,1,0,8.928,0c0-.016,0-.031,0-.047H33.082c0,.016,0,.031,0,.047a4.464,4.464,0,1,0,8.928,0c0-.016,0-.031,0-.047h2.3a.7.7,0,0,0,.7-.7V109.8A3.718,3.718,0,0,0,41.865,106.134Zm-8.878-7.655H38.3a1.552,1.552,0,0,1,1.551,1.551v.047h-6.86Zm0,7.612v-4.605H39.25l1.151,4.605ZM12.734,121.128a3.054,3.054,0,1,1,3.054-3.054A3.058,3.058,0,0,1,12.734,121.128Zm24.811,0a3.054,3.054,0,1,1,3.054-3.054A3.058,3.058,0,0,1,37.545,121.128Zm6.062-9.022h-.8a.8.8,0,0,1-.8-.8v-.8h1.6v1.6Z" transform="translate(0 -94.062)"/></g></g><g transform="translate(11.278 116.617)"><path d="M129.724,350.6a1.457,1.457,0,1,0,1.457,1.457A1.458,1.458,0,0,0,129.724,350.6Z" transform="translate(-128.267 -350.597)"/></g><g transform="translate(36.088 116.617)"><path d="M411.912,350.6a1.457,1.457,0,1,0,1.457,1.457A1.458,1.458,0,0,0,411.912,350.6Z" transform="translate(-410.455 -350.597)"/></g><g transform="translate(18.044 113.61)"><g transform="translate(0 0)"><path d="M216.458,316.393H205.932a.7.7,0,1,0,0,1.41h10.526a.7.7,0,0,0,0-1.41Z" transform="translate(-205.227 -316.393)"/></g></g><g transform="translate(1.504 110.602)"><g transform="translate(0 0)"><path d="M26.829,282.188H17.807a.7.7,0,1,0,0,1.41h9.022a.7.7,0,1,0,0-1.41Z" transform="translate(-17.102 -282.188)"/></g></g><g transform="translate(12.781 100.829)"><g transform="translate(0 0)"><path d="M157.1,171.229a.7.7,0,0,0-1,0l-6.268,6.268-3.261-3.261a.7.7,0,0,0-1,1l3.759,3.759a.7.7,0,0,0,1,0l6.766-6.766A.7.7,0,0,0,157.1,171.229Z" transform="translate(-145.37 -171.023)"/></g></g></g></svg>