<svg xmlns="http://www.w3.org/2000/svg" width="30.334" height="33.138" viewBox="0 0 30.334 33.138"><g transform="translate(-10.397 -10.395)"><g transform="translate(10.397 10.395)"><path d="M126.03,104.261h-3.558a4.177,4.177,0,1,0-7.1-4.4,3.529,3.529,0,0,0-4.407,0,4.177,4.177,0,1,0-7.1,4.4h-3.558A2.308,2.308,0,0,0,98,106.567v3.356a2.306,2.306,0,0,0,1.152,1.995v15.765a3.268,3.268,0,0,0,3.265,3.265h21.5a3.268,3.268,0,0,0,3.265-3.265V111.918a2.307,2.307,0,0,0,1.152-1.995v-3.356A2.308,2.308,0,0,0,126.03,104.261Zm-9.322-2.273a2.259,2.259,0,1,1,2.259,2.259h-2.259Zm.986,4.193,2.915,5.137-.687-.184a.96.96,0,0,0-1.176.679l-.168.627-3.521-6.259h2.636Zm-4.525-5.173a1.62,1.62,0,1,1-1.62,1.62A1.621,1.621,0,0,1,113.168,101.008Zm-1.8,5.173h0l-2.939,5.135-.174-.651a.96.96,0,0,0-1.176-.679l-.68.182,2.274-3.988Zm-4-6.452a2.262,2.262,0,0,1,2.259,2.259v2.259h-2.259a2.259,2.259,0,1,1,0-4.519Zm-7.448,10.194v-3.356a.386.386,0,0,1,.386-.386h6.155l-2.354,4.128h-3.8A.386.386,0,0,1,99.921,109.923Zm14.975,19.1H102.418a1.346,1.346,0,0,1-1.345-1.345V112.229h2.557c.011.017.021.034.033.05a.96.96,0,0,0,1.009.341l1.975-.53.528,1.975a.96.96,0,0,0,1.761.229l.584-1.021v9.708a.96.96,0,0,0,1.92,0v-10.7H114.9v16.743Zm-3.712-18.662,2.03-3.547,1.995,3.547Zm14.08,17.318a1.346,1.346,0,0,1-1.345,1.345h-7.1v-15.8l1.244,2.212a.96.96,0,0,0,.836.489.943.943,0,0,0,.12-.008.96.96,0,0,0,.807-.7l.528-1.975,1.975.53a.96.96,0,0,0,1.084-1.4l-.078-.138h1.931Zm1.152-17.76a.386.386,0,0,1-.386.386h-3.786l-2.342-4.128h6.129a.386.386,0,0,1,.386.386Z" transform="translate(-98.001 -97.809)"/></g></g></svg>